<svg enable-background="new 0 0 277.6 277.6" viewBox="0 0 277.6 277.6" xmlns="http://www.w3.org/2000/svg"><path d="m159.8 33.3.3-1.1h-.1l-.8.9-1.6 1.8-.3-.1-.9-2.3-.4-1.1h-.1l-.1 1.1-1 5.5-1-.2 1.5-8.3.9.2 1.4 3.5 2.5-2.8.9.2-1.5 8.3-1-.2z"/><path d="m166.7 39.9c-.2.1-.4.2-.6.2s-.4.1-.7.1c-.2 0-.5 0-.7 0s-.5-.1-.8-.1c-.5-.1-.9-.3-1.2-.5s-.6-.5-.7-.8-.3-.7-.3-1.1 0-.8.1-1.3.3-.9.5-1.3c.2-.3.5-.6.8-.8s.7-.3 1.1-.4c.4 0 .8 0 1.3.1.3.1.6.2.9.4s.5.4.7.7.3.7.3 1.1-.1 1-.3 1.6l-4.5-1.1c-.2.7-.1 1.3.2 1.7s.7.7 1.4.9c.2.1.4.1.6.1s.4 0 .6 0 .4-.1.6-.1.3-.1.4-.1zm-1.3-5c-.3-.1-.5-.1-.7-.1s-.5 0-.7.1-.4.2-.6.4-.3.4-.4.7l3.6.9c.1-.5 0-1-.2-1.3s-.6-.6-1-.7z"/><path d="m168 41.1.3-.8 1.5.5 1.4-4.2-1.5-.5.3-.8 2.1.7-.1.8h.1c.3-.2.7-.3 1.1-.3.4-.1.8 0 1.2.1.3.1.4.2.6.4.1.1.2.3.2.6v.7s-.1.6-.3.9l-.8-.3c.2-.5.2-.9.2-1.1 0-.3-.2-.4-.4-.5s-.5-.1-.7-.1-.4 0-.6.1-.3.1-.5.2c-.1.1-.2.1-.3.2l-1.1 3.4 2.2.7-.3.8z"/><path d="m174.7 43.3.3-.7 1.5.6 1.7-4.1-1.5-.6.3-.7 2.1.8-.1.8h.1c.3-.1.7-.2 1.1-.2s.8 0 1.2.2c.3.1.4.2.5.4s.2.3.2.6 0 .5-.1.7c-.1.3-.2.6-.3.9l-.8-.3c.2-.5.3-.8.3-1.1s-.1-.4-.4-.5c-.2-.1-.5-.1-.7-.2-.2 0-.4 0-.6 0s-.3.1-.5.1c-.1.1-.2.1-.3.2l-1.3 3.3 2.1.9-.3.7z"/><path d="m184.2 46.5.4.2 3.6-3.9.9.4-3.9 4.1c-.2.2-.4.5-.7.7-.2.3-.5.5-.8.7s-.6.3-1 .4-.7 0-1.2-.2c-.1 0-.2-.1-.3-.2s-.2-.1-.3-.2-.2-.2-.2-.3c-.1-.1-.1-.2-.1-.2l.7-.6c0 .1.1.1.1.2.1.1.1.1.2.2s.2.1.2.2c.1.1.1.1.2.1.5.3 1.1 0 1.8-.8l-.7-.4.4-6.5 1 .5z"/><path d="m201.7 49.2c-.1-.1-.2-.2-.3-.4-.1-.1-.3-.2-.5-.4-.3-.2-.6-.3-.9-.4s-.7-.1-1 0c-.4.1-.7.3-1.1.6s-.7.7-1.1 1.2c-.3.5-.6.9-.7 1.4-.1.4-.2.8-.1 1.2 0 .4.1.7.3 1s.5.6.8.8c.2.1.3.2.5.3s.3.1.5.2l.7-1 .7.5-.9 1.3c-.3 0-.6 0-1-.1s-.8-.3-1.2-.6-.8-.6-1-1-.4-.8-.5-1.3 0-1 .2-1.5.5-1.1.9-1.8c.4-.6.9-1.1 1.4-1.5.5-.3.9-.6 1.4-.7s.9-.1 1.4 0 .9.3 1.3.6c.2.2.4.3.6.4s.3.3.4.4.2.2.3.3.1.2.2.4l-1.1 1.6-.7-.5z"/><path d="m204 49.7 1.5 1.2-1.9 2.5c.4-.1.7-.1 1.1 0s.7.3 1.1.6c.3.2.5.5.7.7s.3.5.3.8 0 .6-.2.9-.4.7-.7 1.1l-2.1 2.7-.7-.6 2-2.6c.2-.3.4-.5.5-.7s.2-.4.2-.6 0-.4-.1-.6-.3-.4-.5-.6c-.2-.1-.4-.2-.6-.3s-.4-.1-.6-.1-.4 0-.6.1-.4.2-.6.3l-2.4 3-.7-.6 4.7-6-.7-.6z"/><path d="m204.9 61.2.5-.6 1.2 1.1 2.9-3.3-1.2-1.1.5-.6 1.7 1.5-.4.7c.4 0 .7 0 1.1.1s.7.3 1.1.6c.2.2.3.4.4.6s0 .4 0 .6-.2.4-.3.7c-.2.2-.4.5-.6.7l-.6-.6c.3-.4.6-.7.6-.9.1-.2 0-.5-.2-.6-.2-.2-.4-.3-.6-.4s-.4-.1-.6-.2c-.2 0-.3 0-.5 0-.1 0-.3 0-.3 0l-2.4 2.6 1.7 1.5-.5.6z"/><path d="m210.4 66.3.6-.6 1.5 1.5 3.2-3.1-1.5-1.5.6-.6 2.1 2.2-3.7 3.6 1.4 1.5-.6.6zm6.8-4.1c.2-.1.3-.2.6-.2.2 0 .4.1.6.2.2.2.2.4.2.6s-.1.4-.2.6c-.2.1-.3.2-.5.2s-.4-.1-.6-.3-.2-.3-.2-.5c-.1-.3 0-.5.1-.6z"/><path d="m219.1 73.4c.2-.2.3-.4.3-.6s-.1-.5-.2-.8-.3-.6-.4-.9c-.2-.3-.3-.6-.4-.9s-.1-.6-.1-.9.2-.5.5-.8c.2-.2.5-.3.7-.4s.5 0 .7.1.5.2.7.4.5.4.7.6c.4.4.6.8.8 1.2s.2.7.3 1l-.8.2c-.1-.3-.1-.6-.2-.9s-.3-.7-.6-1c-.1-.1-.2-.3-.4-.4s-.3-.2-.4-.3-.3-.1-.4-.1-.3.1-.4.2c-.2.1-.2.3-.2.5s.1.5.3.7c.1.3.3.6.5.9s.3.6.4.9.1.6.1.9-.2.6-.5.8c-.4.4-.9.5-1.5.4s-1.1-.5-1.7-1.2c-.2-.2-.3-.4-.4-.6s-.2-.5-.3-.7-.1-.4-.2-.6c0-.2-.1-.4-.1-.5l.9-.1v.5c0 .2.1.4.1.6.1.2.1.4.2.6s.2.4.4.6c.1.2.3.3.4.4s.3.2.4.3c.2.1.3.1.4.1s.3-.1.4-.2z"/><path d="m224.1 72.6.8 1.2 1-.7.8.6-1.2.9 1.9 2.6-.6.5-1.9-2.6-2.3 1.7c-.5.3-.7.7-.8 1.1s.1.8.4 1.2c.2.3.5.5.7.6.3.1.5.2.8.3l-.4.7c-.3-.1-.7-.3-1-.5s-.6-.5-.9-.8c-.2-.3-.3-.5-.4-.8s-.1-.6-.1-.9.1-.6.3-.9.4-.5.8-.8l2.4-1.8-.8-1.2z"/><path d="m224.9 84.2 3.4-2.1c.1-.1.3-.2.4-.3s.2-.2.3-.3.1-.2.1-.3 0-.2-.1-.3c-.1-.2-.4-.4-.7-.4s-.6 0-.9.1l-3.5 2.2-.5-.8 5.1-3.2.3.5-.5.5h.4c.1 0 .3 0 .4.1.1 0 .2.1.3.2s.2.2.3.4c.1.1.1.2.2.3 0 .1.1.3 0 .4 0 .1 0 .3-.1.4s-.2.3-.3.4c.4 0 .7 0 .9.1.3.1.5.3.7.7.1.2.2.4.2.6s0 .4-.1.5c-.1.2-.2.3-.4.5s-.4.3-.6.5l-3.6 2.3-.5-.8 3.5-2.2c.1-.1.3-.2.4-.3s.2-.2.3-.3.1-.2.1-.3 0-.2-.1-.3c-.1-.2-.4-.4-.7-.4s-.6 0-1 .1l-3.4 2.1z"/><path d="m232.5 86.1c.3.2.6.5.9.8s.5.7.7 1.1.3.7.3 1 0 .5-.2.8c-.1.2-.3.4-.5.6s-.4.3-.7.4-.6.3-.9.4-.6.3-.9.5c-.4.2-.7.4-1 .6l.4.7-.7.4-.7-1.4.7-.5v-.1c-.1 0-.2 0-.3-.1-.1 0-.3-.1-.5-.2s-.3-.2-.5-.4-.3-.4-.5-.6c-.3-.5-.4-1-.3-1.5.1-.4.4-.8.9-1 .4-.2.7-.3 1-.2.3 0 .6.2.9.4s.6.5.8 1c.2.4.5.9.7 1.5.3-.1.6-.3.8-.4s.3-.3.4-.4c.1-.2.1-.3.1-.5s-.1-.4-.2-.6c-.2-.3-.4-.6-.6-.8s-.5-.5-.7-.6zm-3.5 3.8c.1.2.2.4.4.5s.3.2.5.3.3.1.5.1h.4l.7-.4c-.1-.4-.3-.8-.4-1.1-.2-.3-.3-.6-.5-.8s-.4-.3-.6-.4-.4 0-.7.1c-.2.1-.4.3-.5.6 0 .4 0 .7.2 1.1z"/><path d="m234 97.9c.2-.1.4-.3.4-.5s0-.5 0-.8-.1-.6-.2-1c-.1-.3-.1-.7-.1-1s0-.6.1-.9.3-.5.7-.6c.3-.1.5-.2.8-.1s.5.1.7.3c.2.1.4.3.6.6.2.2.3.5.5.8.2.5.4 1 .4 1.4s0 .8 0 1.1h-.8c0-.3 0-.6 0-.9s-.1-.7-.3-1.1c-.1-.2-.2-.3-.3-.5-.1-.1-.2-.3-.3-.4s-.3-.2-.4-.2-.3 0-.4.1c-.2.1-.3.2-.3.5v.8s.1.6.2 1c.1.3.1.7.1 1s-.1.6-.2.9-.3.5-.7.6c-.5.2-1 .2-1.5 0s-.9-.8-1.3-1.6c-.1-.2-.2-.5-.3-.7-.1-.3-.1-.5-.1-.7s0-.5 0-.7 0-.4.1-.5l.9.1c0 .1-.1.3-.1.5v.6c0 .2 0 .4.1.6 0 .2.1.4.2.6s.2.4.3.5.2.3.4.4c.1.1.3.2.4.2s.2-.3.4-.4z"/><path d="m118.9 243.8c-.3 0-.6 0-1-.1s-.6-.1-.8-.1c-.7-.1-1.3-.3-1.7-.6s-.8-.6-1-1.1-.4-.9-.4-1.4 0-1.1.1-1.7.3-1.1.5-1.6.5-.9.9-1.3c.4-.3.8-.6 1.3-.7s1.2-.2 1.9 0c.1 0 .2 0 .4.1.2 0 .3.1.5.1s.3.1.5.1.3.1.3.1zm-1.6-1.1c.1 0 .3 0 .4.1h.4l1.2-6.6s-.1 0-.2 0-.1 0-.2-.1c-.1 0-.2 0-.2-.1-.1 0-.1 0-.2 0-.6-.1-1.1-.1-1.5 0s-.7.3-1 .6-.5.6-.6 1-.3.8-.3 1.3c-.1.4-.1.8-.1 1.2s.1.8.2 1.1.4.7.7.9c.3.3.8.5 1.4.6z"/><path d="m113 237.2c-.2.9-.7 1.6-1.3 2s-1.4.5-2.3.3c-.5-.1-.9-.3-1.2-.6-.3-.2-.6-.5-.7-.9-.2-.3-.3-.7-.3-1.1s0-.8.1-1.2c.1-.5.3-.9.5-1.2s.5-.6.8-.8.7-.3 1-.4.8 0 1.3.1.9.3 1.2.6c.3.2.6.5.7.9s.3.7.3 1.1c.1.4 0 .8-.1 1.2zm-.9-.2c.1-.3.1-.6.1-.8 0-.3 0-.6-.1-.8-.1-.3-.2-.5-.4-.7s-.5-.3-.8-.4c-.6-.2-1.1-.1-1.5.2s-.7.8-.9 1.6c-.1.3-.1.6-.1.8 0 .3 0 .6.1.8.1.3.2.5.4.7s.5.3.8.4c.6.2 1.1.1 1.5-.2.4-.4.7-.9.9-1.6z"/><path d="m105.3 236.1c0 .1 0 .2-.1.3 0 .1-.1.2-.1.3s-.1.2-.1.4c0 .1 0 .2-.1.3l.8.2-.2.7-1.5-.5.2-1h-.1c-.1.1-.3.2-.4.3-.2.1-.4.2-.6.2s-.4.1-.6.1-.5 0-.7-.1c-.3-.1-.6-.3-.9-.4-.2-.2-.4-.4-.5-.6s-.2-.6-.1-.9c0-.4.1-.8.3-1.3l1.1-3.3.9.3-1 3.1c-.2.6-.3 1.1-.2 1.5s.4.7 1 .8c.2.1.4.1.6.1s.4-.1.6-.1c.2-.1.4-.2.5-.3.2-.1.3-.3.4-.5l1.2-3.6.9.3z"/><path d="m95.2 237c-.1.2-.2.3-.4.4s-.4.1-.6 0c-.3-.1-.4-.3-.5-.5s-.1-.5.1-.8c.1-.3.3-.5.4-.7.2-.2.4-.3.5-.4.2-.1.4-.2.5-.2h.4l.1.6c-.2 0-.5.1-.7.2s-.4.3-.5.5h.1c.2.1.3.2.4.4.3.2.3.3.2.5z"/><path d="m91.4 233.1-1.3-.6-.5 1.1-1-.2.6-1.3-2.9-1.4.4-.7 2.9 1.4 1.2-2.5c.3-.5.3-1 .2-1.3-.1-.4-.4-.7-.9-.9-.3-.2-.6-.2-.9-.2s-.6 0-.8.1v-.8c.4-.1.7-.1 1.1 0 .4 0 .8.2 1.2.3.3.1.5.3.8.5.2.2.4.4.5.7s.2.6.1.9c0 .3-.1.7-.3 1l-1.3 2.7 1.3.6z"/><path d="m76.4 227.6c-.3-.1-.6-.3-.8-.5-.3-.2-.5-.3-.7-.5-.6-.4-1-.8-1.3-1.3-.3-.4-.5-.9-.5-1.4s0-1 .2-1.5.4-1 .8-1.5c.3-.5.7-.9 1.1-1.3s.8-.6 1.3-.8 1-.2 1.5-.1 1.1.3 1.8.7c.1.1.2.1.3.2s.3.2.4.3.3.2.4.3.2.2.3.2zm-1.1-1.6c.1.1.2.1.4.2s.3.2.4.2l3.8-5.6s-.1-.1-.1-.1c-.1 0-.1-.1-.2-.1s-.1-.1-.2-.1-.1-.1-.2-.1c-.5-.3-.9-.5-1.3-.6s-.8 0-1.1.2-.7.4-1 .7-.6.6-.8 1c-.2.3-.4.7-.6 1-.2.4-.3.7-.3 1.1s.1.7.3 1.1c.1.4.4.7.9 1.1z"/><path d="m68.9 221.5c-.1.2-.3.3-.5.3s-.4 0-.6-.2c-.2-.1-.3-.3-.3-.5s0-.4.2-.6c.1-.2.3-.3.5-.3s.4 0 .6.2c.2.1.3.3.3.5s-.1.4-.2.6zm6.1-5-.5.6-1.6-1.3-2.7 3.5 1.6 1.3-.5.6-2.4-1.9 3.2-4.1-1.6-1.3.5-.6z"/><path d="m65.2 209.2c.2 0 .4 0 .6.1.2 0 .4.1.7.2.2.1.4.2.7.3.2.1.4.3.6.5.4.3.6.7.8 1 .2.4.3.7.3 1.1s-.1.7-.2 1.1-.4.7-.7 1.1-.7.7-1.1.9-.7.3-1.1.3-.7 0-1.1-.2-.7-.4-1.1-.7c-.2-.2-.5-.5-.7-.8s-.3-.6-.3-1c0-.3.1-.7.2-1.1.2-.4.5-.9 1-1.3l3.4 3.1c.5-.5.7-1.1.6-1.6 0-.5-.3-1-.8-1.4-.2-.1-.3-.3-.5-.4s-.4-.2-.6-.3-.4-.1-.5-.2c-.2 0-.3 0-.4 0zm-1.2 5.1c.2.2.4.3.6.4s.4.2.7.2.4 0 .7-.1c.2-.1.5-.2.7-.4l-2.8-2.5c-.3.4-.5.8-.4 1.3 0 .4.2.8.5 1.1z"/><path d="m53.6 208.2-4-4.8 1.7-1.4.6.7-1 .8 1.1 1.3 5.1-4.3-.8-1 .7-.6 2.3 2.8-.7.6-.8-1-5.1 4.3 1.1 1.3 1-.8.6.7z"/><path d="m55.3 197.1-.6.5-1-1.3-3.5 2.6 1 1.3-.6.5-1.3-1.8.5-.6c-.4-.1-.7-.2-1.1-.4-.3-.2-.6-.4-.9-.8-.2-.2-.2-.4-.3-.6 0-.2 0-.4.1-.6s.3-.4.5-.6.5-.4.8-.6l.5.7c-.4.3-.7.6-.8.8s-.1.4 0 .7c.1.2.3.4.5.5s.3.2.5.3.3.1.5.1h.3l2.9-2.1-1.4-1.9.6-.5z"/><path d="m48.8 189.3-.2-.4-5.1 1.4-.5-.8 5.4-1.5c.3-.1.6-.2 1-.3.3-.1.7-.2 1.1-.2s.7 0 1 .2c.3.1.6.4.9.8.1.1.1.2.1.3s.1.2.1.3 0 .2.1.3v.3l-.9.2c0-.1 0-.1 0-.2s0-.2-.1-.3-.1-.2-.1-.3-.1-.2-.1-.2c-.3-.5-1-.6-1.9-.2l.4.7-3.7 5.3-.6-.9z"/><path d="m39.6 187c-.2.1-.4.1-.6.1-.2-.1-.4-.2-.5-.4s-.1-.4-.1-.6c.1-.2.2-.4.4-.5s.4-.1.6 0 .4.2.5.4.1.4.1.6-.2.3-.4.4zm7.6-2.1-.7.4-1-1.8-3.9 2.1 1 1.8-.7.4-1.4-2.7 4.6-2.5-1-1.8.7-.4z"/><path d="m40.5 180.4c-.1 0-.2.1-.3.1-.1.1-.2.1-.3.2s-.2.1-.3.2-.2.1-.3.2l.3.7-.7.3-.7-1.5.8-.5v-.1c-.2 0-.3-.1-.5-.1-.2-.1-.3-.2-.5-.3s-.3-.3-.5-.4c-.1-.2-.3-.4-.4-.6-.2-.3-.2-.6-.3-.9 0-.3 0-.6.1-.8.1-.3.3-.5.6-.7s.7-.5 1.2-.7l3.1-1.4.4.9-3 1.3c-.6.3-1 .6-1.2.9s-.2.8 0 1.3c.1.2.2.4.4.5s.3.3.5.4.4.2.6.2h.6l3.4-1.5.4.8z"/><path d="m39.7 167.4c.4-.1.7-.2 1-.1.3 0 .6.1.9.3s.5.4.7.7.4.6.5 1c.2.4.3.8.3 1.2v1l-1-.1c0-.1.1-.2.1-.3s0-.3 0-.4 0-.3 0-.5-.1-.3-.1-.5c-.1-.3-.3-.6-.4-.8s-.3-.3-.5-.4-.4-.1-.6-.1-.5.1-.8.2l-.6.2c.3.1.6.2.8.5.2.2.4.5.6 1 .3.9.3 1.6 0 2.1-.3.6-1 1-2 1.4s-1.8.4-2.5 0c-.7-.3-1.2-1-1.6-2-.2-.5-.3-.9-.3-1.2s-.1-.7-.1-1zm0 2.8c-.2-.5-.4-.8-.8-.9-.3-.2-.8-.2-1.3-.1l-2.7 1c0 .4.1.9.3 1.5s.6 1 1 1.2c.5.2 1.1.2 1.8-.1.3-.1.6-.3.9-.4.2-.2.4-.3.6-.5.1-.2.2-.4.3-.7.1-.4 0-.7-.1-1z"/></svg>