<svg enable-background="new 0 0 320.6 39.3" viewBox="0 0 320.6 39.3" xmlns="http://www.w3.org/2000/svg"><g fill="#fff"><path d="m29.6 15.1c0 9.1-6.4 14.2-16.5 14.2h-12.8v-.6h3.1v-25l-3.4-2.2h13.6c10.1 0 16 4.8 16 13.6zm-8.8 0c0-8.4-2.9-12.9-7.9-12.9h-1v26.5h.6c5 0 8.3-5 8.3-13.6z"/><path d="m32.1 19.5c0-5.5 4.3-9.9 10.6-9.9 6.4 0 10.9 3.9 10.9 9.9 0 5.6-3.6 10.1-10.9 10.1-5.5.1-10.6-3.9-10.6-10.1zm16.6 6.8c0-3.2-6.5-15.3-9.9-15.3-1 0-1.5.7-1.5 1.9 0 3.8 6.7 15.4 9.8 15.4 1 0 1.6-.7 1.6-2z"/><path d="m79.6 28.7v.6h-11.1v-.6h1.5v-11.6c0-3-.7-4-2.3-4-.8 0-1.5.2-2.3.6v15h1.5v.6h-11.2v-.6h1.9v-14.1l-2.2-1.9 9.9-3.5v3.9c2.5-2.2 4.7-3.7 7.4-3.7 3.3 0 5 2 5 6v13.3z"/><path d="m85.6 7.9c-1.2 0-3.4-1.2-3.4-3.7 0-2.1 1.7-3.7 3.7-3.7s3.9 1.4 3.9 3.9c0 3.2-2.3 6.5-6.8 7.7 1.7-1.6 2.4-2.8 2.6-4.2z"/><path d="m108.4 25.7c-1.4 2.3-4 3.9-7.5 3.9-4.6 0-6.4-2.7-6.4-7.7v-10.9h-3l10.7-8.4v7.8h5.4v.6h-5.4v9c0 4.5 1 6.1 3.9 6.1.9 0 1.5-.1 2.3-.4z"/><path d="m147 15.1c0 9.1-6.4 14.2-16.5 14.2h-12.8v-.6h3.1v-25l-3.4-2.1h13.6c10.1-.1 16 4.7 16 13.5zm-8.8 0c0-8.4-2.9-12.9-7.9-12.9h-1v26.5h.6c5 0 8.3-5 8.3-13.6z"/><path d="m148.9 28.7h1.9v-14.1l-2.2-1.9 9.9-3.5v19.4h1.9v.6h-11.6v-.5zm1.5-24.4c0-2.5 1.5-4.3 4.3-4.3 2.7 0 4.3 1.7 4.3 4.3s-1.5 4.3-4.3 4.3c-2.7 0-4.3-1.7-4.3-4.3z"/><path d="m180.2 25.8c-1.6 2.5-4.2 3.9-7.8 3.9-5.4 0-9.9-3.8-9.9-9.7 0-5.6 3.8-10.3 9.9-10.3 3.6 0 6.1 2.1 6.1 4.9 0 3.2-2.5 6-7.1 7.7 2.2 2.2 5 3.6 7.6 3.6.4 0 .8 0 1.2-.1zm-12.9-12.5c0 3.2 1.7 6.4 4 8.8 1.1-1.4 1.5-2.9 1.5-4.9 0-3.4-2.2-6.2-3.9-6.2-1 0-1.6.8-1.6 2.3z"/><path d="m217.7 12.4c-2.9-6.6-6.2-9.8-9.6-10.2v26.5h3.5v.6h-15.4v-.6h3.5v-26.5c-3.4.4-6.7 3.6-9.6 10.2v-10.9h27.7v10.9z"/><path d="m236.2 9.7v10.2c-4-4.4-5.8-5.4-7.2-5.2v13.9h2.9v.6h-12.5v-.6h1.9v-14l-2.2-1.9 9.9-3.3v4.8c2.2-2.9 4.7-4.7 6.5-4.7.2.1.4.1.7.2z"/><path d="m260.5 10.4-2.6 1.9-8.4 17-4.5 10-7.3-5.1 11.2-5.1-9.1-16.8-2.6-1.9h13.5l-2.6 1.9 4.3 10.1 3.6-10.1-3-1.9h7.5z"/><path d="m261.3 28.7h1.9v-14.1l-2.2-1.9 9.9-3.5v19.4h1.9v.6h-11.6v-.5zm1.5-24.4c0-2.5 1.5-4.3 4.3-4.3 2.7 0 4.3 1.7 4.3 4.3s-1.5 4.3-4.3 4.3-4.3-1.7-4.3-4.3z"/><path d="m298.1 28.7v.6h-11.2v-.6h1.5v-11.6c0-3-.7-4-2.3-4-.8 0-1.5.2-2.3.6v15h1.5v.6h-11.2v-.6h1.9v-14.1l-2.2-1.9 9.9-3.5v3.9c2.5-2.2 4.7-3.7 7.4-3.7 3.3 0 5 2 5 6v13.3z"/><path d="m320.6 7.6v6.3c-1.8-1.1-4.3-2.3-6-2.7 1.8 1.3 2.8 3.5 2.8 6 0 4.4-3.2 7.6-8.5 7.6-2.2 0-4.1-.6-5.6-1.6-.4 2.2.8 3.8 4.2 3.8h4.4c4.5 0 6.9 1.4 6.9 4.7 0 4.4-4.8 7.2-11.9 7.2-5.7 0-8.4-1.2-8.4-3.6 0-1.2.9-2.2 2.5-2.8-.8-.8-1.2-2-1.2-3.4 0-2.1.9-4 3.2-6.3-1.7-1.3-2.8-3.3-2.8-5.8 0-4.2 3.2-7.6 8.8-7.6 2 0 3.8.5 5.1 1.3 2-.9 4.2-2 6.5-3.1zm-19.4 25.3c.9 3.6 4 5.2 7.9 5.2 3 0 5.3-1.1 5.3-2.5 0-.9-1.1-1.3-4.2-1.3h-4.2c-2.1 0-3.8-.5-4.8-1.4zm11.9-10.8c0-1.2-.7-3.2-2.3-6.1-2.3-4-3.6-5.4-4.8-5.4-.8 0-1.5.6-1.5 1.7 0 1.3.8 3.2 2.3 6.1 2.2 4.1 3.7 5.4 4.9 5.4.8 0 1.4-.6 1.4-1.7z"/></g></svg>